# xmcd CD database file
#
# Track frame offsets:
#	150
#	15377
#	37117
#	56420
#	77927
#	92465
#	112537
#	129352
#	145005
#	162365
#	176595
#
# Disc length: 2540 seconds
#
# Revision: 2
# Processed by: cddbd v1.5.2PL0 Copyright (c) Steve Scherf et al.
# Submitted via: CDex 1.51
#
DISCID=7c09ea0b
DTITLE=Alvin and The Chipmunks - Chipmunks In Low Places
DYEAR=1992
DGENRE=Country
TTITLE0=Country Pride
TTITLE1=Achy Breaky Heart
TTITLE2=There Ain't Nothin' Wrong With The Radio
TTITLE3=Stand By Your Man
TTITLE4=Gotta Believe In Pumpkins
TTITLE5=Brothers and Old Boots
TTITLE6=Don't Rock The Jukebox
TTITLE7=Down At The Twist And Shout
TTITLE8=Outlaws
TTITLE9=I Feel Lucky
TTITLE10=I Ain't No Dang Cartoon
EXTD=YEAR: 1992
EXTT0=
EXTT1=
EXTT2=
EXTT3=
EXTT4=
EXTT5=
EXTT6=
EXTT7=
EXTT8=
EXTT9=
EXTT10=
PLAYORDER=
